<svg width="212" height="40" viewBox="0 0 212 40" xmlns="http://www.w3.org/2000/svg"><title>logo-prosegur</title><path d="M174.006 10.166h4.326v12.438c0 1.39.167 2.407.497 3.046.517 1.137 1.641 1.704 3.374 1.704 1.722 0 2.84-.567 3.357-1.704.332-.639.497-1.655.497-3.046V10.166h4.325v12.438c0 2.15-.335 3.826-1.007 5.024-1.253 2.197-3.644 3.295-7.172 3.295-3.53 0-5.926-1.098-7.187-3.295-.672-1.198-1.01-2.873-1.01-5.024V10.166zm-8.32 6.315c-.32-1.383-1.11-2.348-2.363-2.897-.698-.303-1.477-.452-2.334-.452-1.64 0-2.99.617-4.049 1.852-1.052 1.226-1.575 3.076-1.575 5.547 0 2.489.571 4.252 1.713 5.285 1.142 1.033 2.44 1.552 3.897 1.552 1.428 0 2.598-.407 3.511-1.223.911-.824 1.474-1.897 1.686-3.225h-4.713v-3.378h8.485v10.86h-2.817l-.431-2.527c-.821.962-1.557 1.64-2.21 2.034-1.124.684-2.505 1.029-4.147 1.029-2.7 0-4.91-.929-6.634-2.787-1.796-1.868-2.693-4.422-2.693-7.661 0-3.276.905-5.903 2.722-7.88 1.814-1.978 4.214-2.966 7.2-2.966 2.588 0 4.667.655 6.232 1.963 1.574 1.3 2.48 2.924 2.708 4.874h-4.187zm-17.509-2.732H137.4v4.298h9.893v3.514H137.4v5.202h11.276v3.639H133.24V10.166h14.937v3.583zM117.32 24.155c.128.925.382 1.615.76 2.074.69.833 1.873 1.248 3.55 1.248 1.004 0 1.82-.109 2.448-.329 1.187-.421 1.78-1.204 1.78-2.346 0-.669-.294-1.186-.883-1.554-.59-.356-1.516-.671-2.78-.946l-2.154-.48c-2.12-.476-3.584-.994-4.395-1.552-1.37-.934-2.058-2.393-2.058-4.38 0-1.812.664-3.316 1.99-4.517 1.326-1.197 3.275-1.797 5.846-1.798 2.145 0 3.975.568 5.485 1.703 1.52 1.125 2.319 2.763 2.392 4.915h-4.092c-.072-1.218-.607-2.083-1.602-2.595-.663-.338-1.487-.508-2.473-.509-1.096 0-1.973.221-2.627.66-.654.44-.98 1.053-.98 1.838 0 .724.321 1.263.967 1.622.414.237 1.3.517 2.652.838l3.511.837c1.539.365 2.7.855 3.483 1.47 1.215.95 1.825 2.327 1.825 4.13 0 1.85-.715 3.388-2.143 4.614-1.42 1.218-3.427 1.825-6.025 1.825-2.654 0-4.74-.597-6.261-1.797-1.52-1.208-2.28-2.866-2.28-4.971h4.064zm-9.411 4.448c-1.54 1.573-3.765 2.362-6.676 2.362-2.912 0-5.136-.789-6.675-2.362-2.065-1.93-3.096-4.713-3.096-8.347 0-3.706 1.03-6.488 3.096-8.348 1.539-1.573 3.763-2.36 6.675-2.36 2.91 0 5.136.787 6.676 2.36 2.053 1.86 3.08 4.642 3.08 8.348 0 3.634-1.027 6.417-3.08 8.347zm-2.668-3.075c.995-1.235 1.492-2.993 1.492-5.272 0-2.27-.497-4.022-1.492-5.258-.986-1.245-2.322-1.866-4.008-1.866-1.685 0-3.03.617-4.035 1.852-1.006 1.235-1.507 2.994-1.507 5.272 0 2.279.501 4.037 1.507 5.272 1.005 1.235 2.35 1.853 4.035 1.853 1.686 0 3.022-.618 4.008-1.853zM85.16 10.686a5.16 5.16 0 0 1 1.962 1.415c.443.512.793 1.08 1.05 1.702.26.622.387 1.331.388 2.13 0 .96-.244 1.907-.734 2.84-.487.925-1.294 1.58-2.418 1.965.94.373 1.604.909 1.992 1.605.394.687.591 1.74.593 3.157v1.36c0 .924.038 1.552.11 1.88.11.522.369.906.774 1.153v.509h-4.684c-.13-.45-.221-.81-.276-1.085a9.986 9.986 0 0 1-.182-1.743l-.025-1.88c-.02-1.293-.259-2.152-.72-2.581-.451-.432-1.304-.647-2.557-.647H76.04v7.936h-4.16V10.166h9.99c1.43.027 2.526.202 3.29.52zm-9.12 2.994v5.436h4.823c.957 0 1.676-.11 2.155-.328.846-.385 1.271-1.145 1.271-2.281 0-1.224-.41-2.05-1.229-2.472-.461-.236-1.154-.354-2.073-.355h-4.947zm-9.274 7.961c-1.217.99-2.954 1.485-5.21 1.485h-4.326v7.276h-4.228V10.166h8.872c2.044 0 3.675.52 4.892 1.564 1.216 1.045 1.824 2.66 1.824 4.847 0 2.39-.608 4.078-1.824 5.064zm-3.234-7.29c-.553-.446-1.331-.67-2.335-.671H57.23v5.958h3.967c1.004 0 1.782-.242 2.335-.728.563-.484.843-1.252.843-2.305 0-1.052-.28-1.803-.843-2.253zm144.29-3.665a5.163 5.163 0 0 1 1.963 1.415c.441.512.792 1.08 1.05 1.702.26.622.388 1.331.388 2.13 0 .96-.244 1.907-.734 2.84-.487.925-1.293 1.58-2.416 1.965.94.373 1.603.909 1.988 1.605.396.687.593 1.74.594 3.157v1.36c0 .924.038 1.552.11 1.88.11.522.371.906.774 1.153v.509h-4.684c-.128-.45-.223-.81-.276-1.085a9.782 9.782 0 0 1-.18-1.743l-.027-1.88c-.02-1.293-.257-2.152-.72-2.581-.45-.432-1.303-.647-2.556-.647h-4.393v7.936h-4.16V10.166h9.99c1.428.027 2.524.202 3.29.52zm-9.119 2.994v5.436h4.822c.958 0 1.677-.11 2.156-.328.847-.385 1.272-1.145 1.272-2.281 0-1.224-.412-2.05-1.23-2.472-.461-.236-1.153-.354-2.074-.355h-4.946zM23.003 9.017l-6.56 3.038 2.993 6.377 7.853-3.64a25.372 25.372 0 0 0-4.286-5.775zm.19-1.078l5.832-2.7c-3.734-2.458-8.336-3.186-12.922-2.054 1.684.734 4.394 2.185 7.09 4.754zm-7.131 3.303l6.251-2.894a23.254 23.254 0 0 0-6.692-4.395 17.03 17.03 0 0 0-.918-.365c-.633.209-1.263.455-1.89.736l3.249 6.918zM30.33 25.234l-6.325 2.932 3.314 7.06c.7-.333 1.365-.71 1.995-1.122.062-.195.133-.424.207-.684.748-2.658 1.005-5.433.81-8.186zm6.53-3.025l-5.654 2.62c.292 3.618-.229 6.592-.707 8.426a17.046 17.046 0 0 0 6.361-11.046zm-5.747 1.677l5.86-2.716a16.88 16.88 0 0 0-1.133-7.51l-6.624 3.07a26.335 26.335 0 0 1 1.897 7.155zm-7.49 3.467l6.624-3.067a25.941 25.941 0 0 0-1.849-7.176l-7.87 3.648 3.095 6.595zM8.395 14.793c-.196-2.8.073-5.624.852-8.327a17.043 17.043 0 0 0-6.366 10.882l5.514-2.555zm1.833 7.904a26.103 26.103 0 0 1-1.747-6.954l-5.726 2.65c-.214 2.42.09 4.912.974 7.315l6.499-3.011zm5.375 8.372a27.057 27.057 0 0 1-4.298-6.034l-6.508 3.018-2.44 1.13a19.413 19.413 0 0 1-.492-.975C-2.769 18.336 1.531 6.6 11.468 2c8.66-4.012 18.215-1.88 23.729 5.425l-2.464 1.201a16.216 16.216 0 0 0-2.862-2.79l-5.998 2.777a25.771 25.771 0 0 1 4.236 5.799l8.21-3.802.862-.37c.237.422.46.854.669 1.3 4.632 9.871.333 21.603-9.603 26.207-8.675 4.017-18.238 1.924-23.746-5.408l2.443-1.224a16.323 16.323 0 0 0 2.723 2.702l5.936-2.748zm7.66 5.579c-2.593-1.215-4.956-2.892-6.993-4.901l-5.772 2.674c3.67 2.487 8.216 3.265 12.765 2.227zm-6.122-5.305c1.998 1.916 4.305 3.508 6.833 4.644.255.115.48.21.675.29a20.17 20.17 0 0 0 1.851-.68l-3.313-7.055-6.046 2.8zm-5.018-6.687a26.08 26.08 0 0 0 4.341 6.012l6.343-2.936-3.096-6.592-7.588 3.516zm-2.777-9.314a25.218 25.218 0 0 0 1.7 6.976l7.573-3.508-2.994-6.377-6.28 2.909zm1.13-9.749c-.084.229-.184.524-.29.876-.773 2.566-1.063 5.25-.913 7.917l5.97-2.764-3.241-6.91c-.529.271-1.04.565-1.526.881z" fill="#000" fill-rule="evenodd"/></svg>